<svg width="40" height="37" viewBox="0 0 40 37" fill="none" xmlns="http://www.w3.org/2000/svg">
<path d="M37.4 0.899994V9.59999H35.4V2.89999H24.4C22.9 3.29999 20 4.49999 20 5.99999V17.2H18V5.99999C18 4.99999 15.6 3.59999 13.8 2.89999H2V29H12.4V31H0V0.899994H14.1L14.3 0.999994C15 1.19999 17.5 2.19999 18.9 3.69999C20.5 1.89999 23.5 1.09999 23.9 0.999994H24.1H37.4V0.899994Z" fill="white"/>
<path d="M27.4 37H25.8L18.4 29.4H14V21L18.4 20.9L26.1 13H27.4V37ZM16 27.4H19.2L25.3 33.7V16.6L19.2 22.9H15.9V27.4H16Z" fill="#0197F2"/>
<path d="M31.3 32.7L29.6 31.7C29.6 31.7 31.7 28.3 31.7 25.2C31.7 21.9 29.6 18.5 29.6 18.4L31.3 17.4C31.4 17.6 33.7 21.3 33.7 25.2C33.7 28.8 31.4 32.6 31.3 32.7Z" fill="#0197F2"/>
<path d="M36.4 36.2L34.8 35C34.8 35 38 30.8 38 25.2C38 19.6 34.8 15.4 34.8 15.4L36.4 14.2C36.5 14.4 40 19 40 25.3C40 31.5 36.5 36 36.4 36.2Z" fill="#0197F2"/>
</svg>
